<svg xmlns="http://www.w3.org/2000/svg" xmlns:xlink="http://www.w3.org/1999/xlink" version="1.1" x="0px" y="0px" viewBox="0 0 32 40" enable-background="new 0 0 32 32" xml:space="preserve"><g><path d="M3.4476428,7.1054688l1.5527344,0.7763672l1-0.5V4.6181641l-1-0.5L3.4476428,4.8945313   c-0.4941406,0.2470703-1.09375,0.046875-1.3417969-0.4472656C1.8587756,3.953125,2.0589709,3.3525391,2.5531116,3.1054688l2-1   c0.28125-0.140625,0.6132813-0.140625,0.8945313,0l2,1C7.78651,3.2749023,8.0003777,3.6210938,8.0003777,4v1h2.1838875   C10.0722046,5.3143311,10,5.647644,10,6s0.0722046,0.6856689,0.1842651,1H8.0003777v1   c0,0.3789063-0.2138677,0.7250977-0.5527349,0.8945313l-2,1C5.3070178,9.9648438,5.1536975,10,5.0003772,10   S4.6937366,9.9648438,4.5531116,9.8945313l-2-1C2.0589709,8.6474609,1.8587756,8.046875,2.1058459,7.5527344   C2.3538928,7.0585938,2.9535022,6.8588867,3.4476428,7.1054688z"/><circle cx="13" cy="6" r="2"/><path d="M15.0583496,8.1715088C15.6352539,7.6244507,16,6.8560181,16,6s-0.3647461-1.6244507-0.9416504-2.1715088   l4.9111328-0.4093018C19.3735962,4.1178589,19,5.0119019,19,6s0.3735962,1.8821411,0.9694824,2.5808105L15.0583496,8.1715088z"/><path d="M23,10c-1.0563354,0-2.0115967-0.4193115-2.727356-1.0905762L19,14h6l0.6258545-5.0068359   C24.9213867,9.6119385,24.0090942,10,23,10z"/><circle cx="23" cy="6" r="3"/><path d="M25,30c-2.7568359,0-5-2.2431641-5-5s2.2431641-5,5-5s5,2.2431641,5,5S27.7568359,30,25,30z M25,22   c-1.6542969,0-3,1.3457031-3,3s1.3457031,3,3,3s3-1.3457031,3-3S26.6542969,22,25,22z"/><circle cx="25" cy="25" r="2"/><path d="M16.8999023,17.7998047C16.8056641,17.9257813,16.6572266,18,16.5,18H5v1.3487549C5.6264038,19.1269531,6.2976074,19,7,19   c3.3137207,0,6,2.6862793,6,6c0,0.3414917-0.0351563,0.6741333-0.0899658,1h6.1799316C19.0351563,25.6741333,19,25.3414917,19,25   c0-3.3137207,2.6862793-6,6-6c0.7023926,0,1.3735962,0.1269531,2,0.3487549v-1.9345703   c0-0.2651978-0.1053467-0.5195313-0.2929077-0.7070923l-1.4141846-1.4141846C25.1053467,15.1053467,24.8510132,15,24.5858154,15   h-5.5860596L16.8999023,17.7998047z"/><path d="M17.7501221,15H7.4142456c-0.2652588,0-0.5195923,0.1053467-0.7071533,0.2929077L5,17h11.25L17.7501221,15z"/><path d="M7,30c-2.7568359,0-5-2.2431641-5-5s2.2431641-5,5-5s5,2.2431641,5,5S9.7568359,30,7,30z M7,22   c-1.6542969,0-3,1.3457031-3,3s1.3457031,3,3,3s3-1.3457031,3-3S8.6542969,22,7,22z"/><circle cx="7" cy="25" r="2"/></g><text x="0" y="47" fill="#000000" font-size="5px" font-weight="bold" font-family="'Helvetica Neue', Helvetica, Arial-Unicode, Arial, Sans-serif">Created by M. Oki Orlando</text><text x="0" y="52" fill="#000000" font-size="5px" font-weight="bold" font-family="'Helvetica Neue', Helvetica, Arial-Unicode, Arial, Sans-serif">from the Noun Project</text></svg>